<?xml version="1.0" encoding="UTF-8"?>
<svg id="Calque_2" data-name="Calque 2" xmlns="http://www.w3.org/2000/svg" viewBox="0 0 669.97 669.98">
  <defs>
    <style>
      .cls-1 {
        fill: #fff;
        font-family: UrbanistRoman-ExtraBold, Urbanist;
        font-size: 100px;
        font-variation-settings: 'wght' 800;
        font-weight: 700;
      }
    </style>
  </defs>
  <g id="Calque_1-2" data-name="Calque 1">
    <text class="cls-1" transform="translate(402.14 92.46) rotate(21.92)"><tspan x="0" y="0">P</tspan></text>
    <text class="cls-1" transform="translate(451.57 110.46) rotate(36.24)"><tspan x="0" y="0">O</tspan></text>
    <text class="cls-1" transform="translate(510.12 153.91) rotate(51.09)"><tspan x="0" y="0">R</tspan></text>
    <text class="cls-1" transform="translate(547.23 199.11) rotate(64.51)"><tspan x="0" y="0">T</tspan></text>
    <text class="cls-1" transform="translate(572.5 253.06) rotate(76.55)"><tspan x="0" y="0">F</tspan></text>
    <text class="cls-1" transform="translate(584.36 296.14) rotate(89.07)"><tspan x="0" y="0">O</tspan></text>
    <text class="cls-1" transform="translate(584.05 369.44) rotate(103.88)"><tspan x="0" y="0">L</tspan></text>
    <text class="cls-1" transform="translate(574.07 417.84) rotate(117.92)"><tspan x="0" y="0">O</tspan></text>
    <text class="cls-1" transform="translate(537.6 481.96) rotate(128.74)"><tspan x="0" y="0"> </tspan></text>
    <text class="cls-1" transform="translate(525.25 499.72) rotate(137.49)"><tspan x="0" y="0">2</tspan></text>
    <text class="cls-1" transform="translate(485.43 536.96) rotate(150.19)"><tspan x="0" y="0">0</tspan></text>
    <text class="cls-1" transform="translate(435.96 565.6) rotate(162.99)"><tspan x="0" y="0">2</tspan></text>
    <text class="cls-1" transform="translate(383.93 581.96) rotate(175.58)"><tspan x="0" y="0">4</tspan></text>
    <text class="cls-1" transform="translate(327.67 585.17) rotate(-175.64)"><tspan x="0" y="0"> </tspan></text>
    <text class="cls-1" transform="translate(305.33 583.6) rotate(-170.22)"><tspan x="0" y="0">•</tspan></text>
    <text class="cls-1" transform="translate(280.68 579.37) rotate(-164.76)"><tspan x="0" y="0"> </tspan></text>
    <text class="cls-1" transform="translate(259.48 575.05) rotate(-156.09)"><tspan x="0" y="0">P</tspan></text>
    <text class="cls-1" transform="translate(210.68 555.33) rotate(-141.78)"><tspan x="0" y="0">O</tspan></text>
    <text class="cls-1" transform="translate(153.67 509.88) rotate(-126.93)"><tspan x="0" y="0">R</tspan></text>
    <text class="cls-1" transform="translate(118.14 463.42) rotate(-113.49)"><tspan x="0" y="0">T</tspan></text>
    <text class="cls-1" transform="translate(94.77 408.61) rotate(-101.44)"><tspan x="0" y="0">F</tspan></text>
    <text class="cls-1" transform="translate(83.83 364.88) rotate(-88.07)"><tspan x="0" y="0">O</tspan></text>
    <text class="cls-1" transform="translate(87.26 291.9) rotate(-74.11)"><tspan x="0" y="0">L</tspan></text>
    <text class="cls-1" transform="translate(98.94 243.88) rotate(-60.09)"><tspan x="0" y="0">O</tspan></text>
    <text class="cls-1" transform="translate(137.6 181.08) rotate(-49.28)"><tspan x="0" y="0"> </tspan></text>
    <text class="cls-1" transform="translate(150.55 163.76) rotate(-40.54)"><tspan x="0" y="0">2</tspan></text>
    <text class="cls-1" transform="translate(191.65 127.9) rotate(-27.82)"><tspan x="0" y="0">0</tspan></text>
    <text class="cls-1" transform="translate(242.07 101.01) rotate(-15.01)"><tspan x="0" y="0">2</tspan></text>
    <text class="cls-1" transform="translate(294.65 86.48) rotate(-2.45)"><tspan x="0" y="0">4</tspan></text>
    <text class="cls-1" transform="translate(350.98 85.2) rotate(6.34)"><tspan x="0" y="0"> </tspan></text>
    <text class="cls-1" transform="translate(373.26 87.54) rotate(11.78)"><tspan x="0" y="0">•</tspan></text>
  </g>
</svg>