<?xml version="1.0" encoding="UTF-8"?>
<svg id="Calque_2" data-name="Calque 2" xmlns="http://www.w3.org/2000/svg" viewBox="0 0 565.34 641.16">
  <defs>
    <style>
      .cls-1 {
        fill: #fff;
        stroke-width: 0px;
      }
    </style>
  </defs>
  <g id="Calque_1-2" data-name="Calque 1">
    <path class="cls-1" d="M51.45,577.06l230.87,64.09,231.51-64.18L565.34,0H0l51.45,577.06ZM282.43,117.96h177.29l-1.69,18.99-3.23,35.88-1.42,15.91H182.55l6.47,72.47h257.92l-1.73,19.01-16.63,186.33-1.06,11.96-144.85,40.14h0s-.33.1-.33.1l-144.98-40.24-9.91-111.13h71.05s5.04,56.45,5.04,56.45l78.82,21.28.06-.02h0s78.94-21.31,78.94-21.31l8.22-91.79H124.29l-17.4-195.04-1.69-18.99h177.23Z"/>
  </g>
</svg>