<?xml version="1.0" encoding="UTF-8"?>
<svg id="Calque_1" data-name="Calque 1" xmlns="http://www.w3.org/2000/svg" viewBox="0 0 2500 2500">
  <defs>
    <style>
      .cls-1 {
        fill: #323330;
      }

      .cls-1, .cls-2 {
        stroke-width: 0px;
      }

      .cls-2 {
        fill: #fff;
      }
    </style>
  </defs>
  <path class="cls-2" d="M0,0h2500v2500H0V0Z"/>
  <path class="cls-1" d="M2295.39,1903.75c-18.3-114.07-92.68-209.84-312.98-299.19-76.52-35.17-161.83-60.36-187.26-118.35-9.03-33.75-10.22-52.76-4.52-73.19,16.4-66.3,95.53-86.98,158.27-67.97,40.4,13.55,78.66,44.68,101.71,94.34,107.89-69.86,107.65-69.39,182.98-117.39-27.57-42.78-42.3-62.5-60.36-80.8-64.88-72.48-153.28-109.79-294.68-106.94-24.48,3.09-49.19,6.41-73.67,9.51-70.58,17.82-137.83,54.9-177.28,104.56-118.35,134.27-84.6,369.29,59.41,466.02,141.87,106.46,350.29,130.7,376.9,230.28,25.9,121.91-89.59,161.36-204.37,147.34-84.6-17.59-131.65-60.6-182.51-138.78q-93.63,54.18-189.87,109.55c22.81,49.9,46.81,72.48,85.08,115.73,181.08,183.7,634.27,174.67,715.54-103.37,3.32-9.51,25.19-73.2,7.6-171.34ZM1359.08,1149h-233.84c0,202-.95,402.57-.95,604.56,0,128.56,6.65,246.44-14.26,282.56-34.22,71.05-122.86,62.26-163.26,48.48-41.11-20.2-62.02-48.95-86.26-89.59-6.65-11.64-11.64-20.67-13.31-21.39-63.45,38.74-126.66,77.71-190.11,116.44,31.61,64.88,78.18,121.2,137.83,157.79,89.12,53.47,208.89,69.87,334.13,41.11,81.51-23.76,151.85-72.95,188.69-147.81,53.23-98.15,41.83-216.97,41.35-348.38,1.19-214.35,0-428.71,0-643.77h0Z"/>
</svg>