<?xml version="1.0" encoding="UTF-8"?>
<svg id="Calque_2" data-name="Calque 2" xmlns="http://www.w3.org/2000/svg" viewBox="0 0 475.55 475.55">
  <defs>
    <style>
      .cls-1 {
        fill: #000;
      }

      .cls-1, .cls-2 {
        stroke-width: 0px;
      }

      .cls-2 {
        fill: #fff;
      }
    </style>
  </defs>
  <g id="Icons_White" data-name="Icons White">
    <g id="Lr">
      <rect class="cls-2" width="475.55" height="475.55" rx="90.04" ry="90.04"/>
      <g>
        <path class="cls-1" d="M136.75,331.4c-2.36,0-2.95-.89-2.95-2.95v-188.46c0-1.48.59-2.66,2.36-2.66h31.61c1.18,0,1.77.89,1.77,2.07v159.81h86.85c1.77,0,2.36.89,2.07,2.07l-5.02,27.77c-.3,2.07-1.18,2.36-2.66,2.36h-114.02Z"/>
        <path class="cls-1" d="M307.48,185.77c1.77,0,2.66.59,3.25,2.36,1.48,3.84,2.66,11.22,2.95,17.72,10.04-12.41,26.88-23.04,47.26-23.04,1.77,0,2.36.3,2.36,2.07v31.31c0,1.48-.59,2.07-2.66,2.07-20.97-.59-38.4,6.79-45.2,15.66v95.12c0,1.77-.89,2.36-2.66,2.36h-30.72c-2.07,0-2.66-.89-2.66-2.36v-101.91c0-12.7-.3-29.83-1.48-39.58,0-1.48.3-1.77,1.77-1.77h27.77Z"/>
      </g>
    </g>
  </g>
</svg>