<?xml version="1.0" encoding="UTF-8"?>
<svg id="Calque_2" data-name="Calque 2" xmlns="http://www.w3.org/2000/svg" viewBox="0 0 593.55 247.05">
  <defs>
    <style>
      .cls-1 {
        fill: #c4c4c4;
      }

      .cls-1, .cls-2, .cls-3, .cls-4 {
        stroke-width: 0px;
      }

      .cls-2 {
        fill: #686868;
      }

      .cls-3 {
        fill: #000;
      }

      .cls-4 {
        fill: #fff;
      }
    </style>
  </defs>
  <g id="katman_1" data-name="katman 1">
    <g>
      <path class="cls-4" d="M89.27,45.21c11.79-.2,23.6-.01,35.41-.09,7.67,29.57,14.76,59.28,22.47,88.82,8.45-29.45,15.61-59.27,23.76-88.81,11.42.05,22.82-.12,34.24.13,0,36.07-.01,72.13,0,108.21-.07,1.24-.22,2.5-.43,3.75-8.8-.16-17.62.03-26.41-.12-.02-17.25-.05-34.5,0-51.75-.04-6.29.14-12.59-.4-18.86-5.7,23.68-12.23,47.18-18.47,70.72-8.71-.12-17.42-.01-26.12-.08-5.57-20.69-10.92-41.43-16.41-62.13-1.16-3.78-2.06-7.64-2.36-11.6-.48,3.12-1.12,6.23-1.1,9.4-.05,21.44.14,42.9-.07,64.34-8.04.03-16.06.05-24.09-.03-.03-37.29.01-74.59-.01-111.88"/>
      <path class="cls-2" d="M43.79,0c62.05.03,124.1.02,186.15.01,3.5.07,7.06-.27,10.53.46,4.45,1.57,8.04,5.23,9.74,9.62.55,63.95.29,127.91.27,191.87-68.85.18-137.71.07-206.56.04-.21-67.33.06-134.66-.14-202M89.27,45.21c.02,37.29-.02,74.59.01,111.88,8.03.08,16.05.06,24.09.03.21-21.45.02-42.9.07-64.34-.02-3.17.62-6.28,1.1-9.4.29,3.96,1.19,7.82,2.36,11.6,5.49,20.7,10.84,41.44,16.41,62.13,8.71.07,17.42-.03,26.12.08,6.24-23.54,12.77-47.03,18.47-70.72.53,6.27.36,12.57.4,18.86-.04,17.25-.01,34.51,0,51.75,8.79.15,17.6-.04,26.41.12.21-1.24.35-2.5.43-3.75-.01-36.08,0-72.14,0-108.21-11.42-.25-22.83-.07-34.24-.13-8.14,29.55-15.31,59.36-23.76,88.81-7.71-29.54-14.8-59.26-22.47-88.82-11.81.08-23.61-.1-35.41.09"/>
      <path class="cls-1" d="M.11,26.19C14.74,17.58,29.14,8.57,43.79,0c.2,67.34-.07,134.67.14,202-6.66,4.11-13.44,7.99-20.04,12.17-7.95,4.63-15.64,9.72-23.78,14.02C-.03,160.87-.04,93.53.11,26.19"/>
      <path class="cls-3" d="M250.22,10.1c.76,11.73.1,23.52.37,35.27,6.61.05,13.24.13,19.86,0,.2,67.22.12,134.45.04,201.68-77.03-.08-154.06-.02-231.07-.03-5.53.16-11.08-2.72-13.82-7.59-1.73-2.87-1.72-6.34-1.74-9.58.05-5.23,0-10.46.02-15.68,6.6-4.19,13.38-8.06,20.04-12.17,68.86.03,137.71.14,206.56-.04.02-63.96.28-127.92-.27-191.87"/>
      <path class="cls-4" d="M335.11,60.58c6.45.12,12.91-.31,19.35.27,3.61,12.5,8.43,24.63,12.5,37,2.07,6.58,4.91,12.95,6.45,19.69,7.04-18.89,13.61-37.96,20.36-56.94,6-.02,11.99-.01,17.99-.01-.06,26.96.03,53.93-.04,80.89-4.64-.03-9.27-.04-13.91-.02-.1-19.59.16-39.17-.12-58.75-.48,1.58-.97,3.15-1.51,4.72-1.29,3.58-2.66,7.13-3.85,10.74-3.76,10.59-7.61,21.14-11.31,31.75-5.17.01-10.35-.03-15.52.04-4.09-11.65-8.2-23.28-12.34-34.9-1.46-4.51-3.51-8.85-4.24-13.57-.69,5.14-.42,10.33-.46,15.51,0,14.81-.02,29.62.01,44.43-4.45.05-8.89.02-13.32.04-.04-26.96,0-53.92-.02-80.87"/>
      <path class="cls-4" d="M427.83,84.41c6.17-2.99,12.71-5.78,19.69-5.88,6.77-.39,14.04-.09,19.81,3.94,5.39,3.62,7.81,10.27,7.86,16.56.01,14.13-.01,28.27.01,42.4-3.78.03-7.55.02-11.31,0-.47-2.05-.99-4.09-1.52-6.11-.18.41-.54,1.25-.72,1.65-6.78,5.54-16.02,7.2-24.43,5.04-6.23-1.87-11.86-6.87-12.91-13.5-.37-3.56-.38-7.18.09-10.72,1.33-6.43,7.1-10.86,13.14-12.58,7.52-2.32,15.46-1.46,23.19-1.62.2-4.71.49-10.99-4.65-13.27-8.11-2.79-16.72.25-24.24,3.45-1.26-3.16-3.2-6.04-4.01-9.36M438.7,119.84c-.14,3.42-1.01,7.83,2.09,10.27,3.1,2.7,7.48,2.03,11.25,1.68,3.23-1.13,6.24-2.85,8.7-5.26,0-4.55-.02-9.1.02-13.64-4.74.1-9.5-.3-14.21.27-3.56.5-7.4,2.81-7.85,6.68"/>
      <path class="cls-4" d="M560.65,79c5.6-.72,11.26-.72,16.87-.08,4.21,1.31,8.58,2.98,11.41,6.56,3.46,4.02,4.65,9.5,4.62,14.69-.01,13.75-.02,27.5-.01,41.26-3.79,0-7.57.02-11.34,0-.46-2-.97-3.99-1.5-5.97-.21.38-.64,1.12-.86,1.5-9.8,8.3-27.28,8.52-35.01-2.68-3.5-5.85-2.85-13.28-1.25-19.63,2.62-4.57,6.99-7.95,12.06-9.39,7.57-2.4,15.59-1.54,23.4-1.66.13-4.54.58-10.4-4.05-12.99-8.26-3.49-17.08.21-24.94,2.98-1.07-3.18-3.4-5.86-3.87-9.24,4.63-2.28,9.44-4.18,14.47-5.36M559.83,115.18c-4.01,2.83-2.88,8.19-2.77,12.37,1.33,1.95,3,3.8,5.43,4.29,5.85,1.11,12.47-.79,16.37-5.36.52-4.5.08-9.06.21-13.58-6.38.43-13.55-1.45-19.24,2.28"/>
      <path class="cls-4" d="M481.37,79.85c4.95,0,9.91.03,14.88-.03,1.2,4.05,2.45,8.1,3.46,12.2l.37.64c3.28,12.61,7.34,25,10.54,37.63,1.52-5.05,2.82-10.17,4.14-15.28,2.98-11.72,6.25-23.38,9.08-35.13,4.81-.04,9.64-.02,14.45-.04-6.9,23.48-14.17,46.86-21.21,70.31-1.97,6.45-6.1,12.82-12.9,14.8-5.65,1.41-11.85,1.35-17.44-.39.73-3.2,1.32-6.43,2.18-9.6,3.93.63,8.22,1.39,11.96-.46,4.56-2.69,4.87-8.51,6.33-13.05-2.11-.02-4.2-.03-6.3-.08-6.22-20.59-13.2-40.96-19.54-61.52"/>
    </g>
  </g>
</svg>