<?xml version="1.0" encoding="UTF-8"?>
<svg id="Calque_2" data-name="Calque 2" xmlns="http://www.w3.org/2000/svg" viewBox="0 0 2429.78 2403.79">
  <defs>
    <style>
      .cls-1 {
        fill: #fff;
        stroke-width: 0px;
      }
    </style>
  </defs>
  <g id="Calque_1-2" data-name="Calque 1">
    <path class="cls-1" d="M23.12,838.24s-59.18-42.66,11.84-99.62l165.46-147.95s47.34-49.81,97.4-6.41l1526.85,1155.99v554.32s-.74,87.04-112.44,77.43L23.12,838.24Z"/>
    <path class="cls-1" d="M416.67,1195.54L23.12,1553.33s-40.44,30.08,0,83.84l182.72,166.2s43.4,46.6,107.51-6.41l417.22-316.37-313.9-285.05Z"/>
    <path class="cls-1" d="M1107.6,1198.5l721.75-551.12-4.69-551.36s-30.82-120.33-133.65-57.7l-960.45,874.14,377.03,286.04Z"/>
    <path class="cls-1" d="M1712.22,2372.74c41.92,42.91,92.72,28.85,92.72,28.85l562.46-277.16c72-49.07,61.89-109.98,61.89-109.98V359.37c0-72.74-74.47-97.89-74.47-97.89L1867.33,26.48c-106.52-65.84-176.31,11.84-176.31,11.84,0,0,89.76-64.61,133.65,57.7v2188.44c0,15.04-3.21,29.84-9.62,43.15-12.82,25.89-40.69,50.06-107.51,39.95l4.69,5.18Z"/>
  </g>
</svg>